# xmcd
#
# Track frame offsets:
#	180
#	11374
#	26343
#	49017
#	60066
#	81634
#	108980
#	126810
#	138102
#	155141
#	169541
#	188930
#	209572
#	222371
#
# Disc length: 3228 seconds
#
# Revision: 1
# Processed by: cddbd v1.5.2PL0 Copyright (c) Steve Scherf et al.
# Submitted via: audiograbber 1.83.01
#
DISCID=ba0c9a0e
DTITLE=Dan Kaplan - Vera Hall
DYEAR=1996
DGENRE=Blues
TTITLE0=Blues for Marcus Dixon
TTITLE1=Latrobe Stomp
TTITLE2=Rosella
TTITLE3=I Shall Not Be Moved
TTITLE4=African Postman
TTITLE5=John Lee
TTITLE6=Jacqueena
TTITLE7=Lucky Bounce
TTITLE8=Vera Hall
TTITLE9=Dusk
TTITLE10=Williamson's Lullabye
TTITLE11=Shuffle and Skip
TTITLE12=Low Slow
TTITLE13=I'm So Lonesome I Could Cry
EXTD=
EXTT0=
EXTT1=
EXTT2=
EXTT3=
EXTT4=
EXTT5=
EXTT6=
EXTT7=
EXTT8=
EXTT9=
EXTT10=
EXTT11=
EXTT12=
EXTT13=
PLAYORDER=
